<?xml version="1.0" encoding="utf-8"?>
<!-- Generator: Adobe Illustrator 15.1.0, SVG Export Plug-In . SVG Version: 6.00 Build 0)  -->
<!DOCTYPE svg PUBLIC "-//W3C//DTD SVG 1.1//EN" "http://www.w3.org/Graphics/SVG/1.1/DTD/svg11.dtd">
<svg version="1.1" id="Layer_1" xmlns="http://www.w3.org/2000/svg" xmlns:xlink="http://www.w3.org/1999/xlink" x="0px" y="0px"
	 width="595.28px" height="841.89px" viewBox="0 0 595.28 841.89" enable-background="new 0 0 595.28 841.89" xml:space="preserve">
<linearGradient id="SVGID_1_" gradientUnits="userSpaceOnUse" x1="220.5415" y1="175.5625" x2="332" y2="175.5625">
	<stop  offset="0" style="stop-color:#2BB673"/>
	<stop  offset="1" style="stop-color:#000000"/>
</linearGradient>
<rect x="220.542" y="133.375" fill="url(#SVGID_1_)" stroke="#000000" stroke-miterlimit="10" width="111.458" height="84.375"/>
<path fill="none" stroke="#000000" stroke-miterlimit="10" d="M184.083,109.417c0.964,1.498,31.229-9.29,33.226-9.826
	c12.227-3.498,24.66-5.867,37.298-7.107c12.919,2.397,2.589-3.964,10.24,5.517c4.149,12.429,7.126,25.145,8.932,38.146
	c2.757,16.702,3.792,33.509,3.106,50.42c-0.778,12.439-2.144,30.177-10.635,40.312c-4.244-10.406,2.399-32.842,4.236-41.09
	c3.991-17.928,8.642-48.537,20.259-64.143c-5.356,26.763-18.099,53.486-26.162,79.672c22.897,11.42,56.684,5.999,76.773,19.557
	c4.662,3.146,6.41,7.708,11.477,10.417"/>
<path fill="none" stroke="#000000" stroke-miterlimit="10" d="M187.208,192.75c8.818,0.77,25.265-3.914,31.834-5.19
	c42.878-8.332,87.264-15.285,128.163-31.244c21.861-8.531,57.399-21.448,63.921-47.931c-11.881-1.465-28.508,4.226-39.17,7.172
	c-14.631,4.042-37.311,10.007-49.331,17.818"/>
<line fill="none" stroke="#000000" stroke-miterlimit="10" x1="287.208" y1="60.458" x2="129.917" y2="238.583"/>
<line fill="none" stroke="#000000" stroke-miterlimit="10" x1="129.917" y1="238.583" x2="372.625" y2="285.458"/>
<line fill="none" stroke="#000000" stroke-miterlimit="10" x1="372.625" y1="285.458" x2="411.126" y2="133.375"/>
<g>
	<linearGradient id="SVGID_2_" gradientUnits="userSpaceOnUse" x1="187.2085" y1="329.209" x2="276.2871" y2="329.209">
		<stop  offset="0" style="stop-color:#2BB673"/>
		<stop  offset="0.0675" style="stop-color:#FFFFFF"/>
		<stop  offset="1" style="stop-color:#000000"/>
	</linearGradient>
	<rect x="187.208" y="308.896" fill="url(#SVGID_2_)" width="89.079" height="40.625"/>
	<text transform="matrix(1 0 0 1 207.0352 329.209)" font-family="'MyriadPro-Regular'" font-size="12">dssdsdsd</text>
</g>
</svg>
